# xmcd CD database file
# Copyright (C) 1996 Ti Kan
#
# Track frame offsets:
#  150
#  12887
#  26825
#  39820
#  54525
#  65492
#  77885
#  90217
#  99332
#  110775
#
# Disc length: 1647 seconds
#
# Revision: 1
# Processed by: cddbd v1.4b41PL1 Copyright (c) Steve Scherf et al.
# Submitted via: CDWizzard Release:4.10
#
DISCID=72066d0a
DTITLE=Kitty Wells - Kitty Wells: Release Me
DYEAR=1900
DGENRE=
TTITLE0=Release Me and Let me Love Again
TTITLE1=I Don't Claim to Be an Angel
TTITLE2=Making Believe
TTITLE3=One by One
TTITLE4=Searching
TTITLE5=Left to Right
TTITLE6=Password
TTITLE7=I'll Repossess My Heart
TTITLE8=It Wasn't God Who Made Honky Tonk Angels
TTITLE9=This White Circle on My Finger
EXTD=
EXTT0=Kitty Wells
EXTT1=Kitty Wells
EXTT2=Kitty Wells
EXTT3=Kitty Wells &
EXTT4=Kitty Wells
EXTT5=Kitty Wells
EXTT6=Kitty Wells
EXTT7=Kitty Wells
EXTT8=Kitty Wells
EXTT9=Kitty Wells
PLAYORDER=
